<svg width="22" height="23" viewBox="0 0 22 23" fill="none" xmlns="http://www.w3.org/2000/svg">
<path fill-rule="evenodd" clip-rule="evenodd" d="M13.0222 15.2213C13.1014 15.4889 13.1322 15.7713 13.1102 16.0538L13.112 16.4938C13.112 16.8581 12.8163 17.1538 12.452 17.1538C12.0877 17.1538 11.792 16.8581 11.792 16.4938V16.0019C11.8166 15.6657 11.7181 15.3929 11.5157 15.1809C11.3423 14.9996 11.2869 14.7356 11.3722 14.4997C11.4585 14.2639 11.6705 14.0976 11.9205 14.0694C13.4569 13.8996 14.4795 13.3654 14.4795 11.3062C14.4795 10.7905 14.2841 10.3021 13.9295 9.93079C13.7544 9.74775 13.6998 9.48198 13.7878 9.24438C13.8961 8.95398 13.9277 8.64598 13.8837 8.34678C13.6593 8.42334 13.3056 8.57998 12.8198 8.90558C12.6605 9.01382 12.4625 9.04374 12.2777 8.99446C11.2728 8.71902 10.2106 8.71902 9.20654 8.99446C9.02174 9.04374 8.82374 9.01382 8.66446 8.90558C8.1831 8.5835 7.83286 8.42686 7.59966 8.3503C7.55654 8.64862 7.5891 8.95574 7.69646 9.24526C7.78358 9.48198 7.72902 9.74687 7.55566 9.92903C7.1975 10.3057 7.00214 10.7993 7.00478 11.3185C7.00478 13.3513 8.03174 13.8952 9.57262 14.087C9.8199 14.1178 10.0293 14.2859 10.1129 14.5209C10.1965 14.7567 10.1402 15.0189 9.96686 15.1993C9.7715 15.4026 9.6703 15.6789 9.69054 15.9553L9.6923 16.4296C9.6923 16.7209 9.50046 16.9787 9.2215 17.0623C8.77886 17.1943 8.3943 17.2506 8.05814 17.2506C6.83846 17.2506 6.25942 16.5158 5.88102 16.0345C5.72438 15.8365 5.56246 15.6314 5.45158 15.6041C5.0987 15.5153 4.8831 15.1571 4.97198 14.8033C5.05998 14.4505 5.41726 14.2331 5.7719 14.3229C6.32014 14.4601 6.63782 14.8632 6.91766 15.2178C7.29518 15.6957 7.5583 16.0353 8.36702 15.9095C8.36174 15.6816 8.3943 15.451 8.46294 15.2257C7.28286 14.9151 5.68478 14.0492 5.68478 11.3221C5.68126 10.5952 5.9127 9.89823 6.3439 9.3227C6.19166 8.67414 6.24886 7.9939 6.51462 7.3735C6.59206 7.19222 6.74606 7.05582 6.93526 6.9995C7.1271 6.9423 7.83374 6.83406 9.14934 7.64806C10.1974 7.40694 11.2877 7.40694 12.3349 7.64806C13.6505 6.83494 14.3563 6.94406 14.5481 6.9995C14.7373 7.05582 14.8922 7.19222 14.9688 7.3735C15.2354 7.9939 15.2935 8.67326 15.1404 9.32182C15.5681 9.89119 15.7995 10.5829 15.7995 11.3062C15.7995 14.0668 14.2041 14.923 13.0222 15.2213ZM14.2736 3.36774H6.84638C3.93358 3.36774 1.97998 5.41814 1.97998 8.45414V15.4413C1.97998 18.4861 3.93358 20.5277 6.84638 20.5277H14.2736C17.1864 20.5277 19.14 18.4861 19.14 15.4413V8.45414C19.14 5.41814 17.1864 3.36774 14.2736 3.36774Z" fill="#D1D0D5"/>
</svg>
